<svg xmlns="http://www.w3.org/2000/svg" viewBox="0 0 288.06 52.36"><defs><style>.cls-1{fill:#78a22e;}.cls-2{fill:#5d87a1;}</style></defs><g id="Layer_2" data-name="Layer 2"><g id="Layer_1-2" data-name="Layer 1"><path class="cls-1" d="M24.44,24.57l6.23.07,0,26.93H24.46Z"/><path class="cls-1" d="M4.71,51.57V21.74H0V17H4.71V15c0-9.08,5.34-15,14.9-15,3.16,0,6.89,1,8.65,2.29L26.5,7.08a13.06,13.06,0,0,0-7.17-2c-6.54,0-8.51,4.65-8.51,10.16V17L30.53,17v4.73H10.89V51.57Z"/><path class="cls-1" d="M44.42,35.34c.14,8.51,5.42,12,11.6,12a22.9,22.9,0,0,0,9.42-1.73l1.13,4.44a27.18,27.18,0,0,1-11.39,2.22c-10.41,0-16.73-7.08-16.73-17.45,0-10.52,6.11-18.75,16-18.75,11.1,0,14,10,14,16.31a16.63,16.63,0,0,1-.21,3Zm18.07-4.51C62.56,26.89,60.87,20.6,54,20.6c-6.32,0-9,5.87-9.49,10.23Z"/><path class="cls-1" d="M76.12.79h6.19V51.57H76.12Z"/><path class="cls-1" d="M122,.79V42.63c0,3.08.07,6.58.28,8.94h-5.55l-.28-6h-.14a12.45,12.45,0,0,1-11.53,6.79c-8.22,0-14.62-7.08-14.62-17.6-.07-11.59,7-18.59,15.26-18.59,5.27,0,8.78,2.5,10.26,5.22h.13V.79ZM115.76,31a11.87,11.87,0,0,0-.27-2.71,9.15,9.15,0,0,0-8.93-7.23c-6.4,0-10.19,5.72-10.19,13.31,0,7.08,3.44,12.87,10,12.87a9.41,9.41,0,0,0,9.07-7.51,11.21,11.21,0,0,0,.27-2.72Z"/><path class="cls-2" d="M131.37,45.21a17.31,17.31,0,0,0,8.23,2.43c4.42,0,6.53-2.22,6.53-5.15s-1.76-4.65-6.25-6.37c-6.19-2.29-9.07-5.65-9.07-9.8,0-5.57,4.5-10.15,11.74-10.15a15.64,15.64,0,0,1,8.29,2.14l-1.47,4.51a13.75,13.75,0,0,0-7-2c-3.66,0-5.63,2.14-5.63,4.72,0,2.93,2,4.22,6.4,5.93,5.83,2.22,8.92,5.23,8.92,10.44,0,6.16-4.7,10.45-12.64,10.45a19.2,19.2,0,0,1-9.57-2.43Z"/><path class="cls-2" d="M167.5,8.65V17h8.86v4.79H167.5V40.42c0,4.29,1.19,6.72,4.64,6.72a11.18,11.18,0,0,0,3.58-.43L176,51.5a16.38,16.38,0,0,1-5.49.86,8.77,8.77,0,0,1-6.68-2.64c-1.68-1.94-2.39-5-2.39-9.09V21.74h-5.27V17h5.27V10.59Z"/><path class="cls-2" d="M196.75,52.36c-9.14,0-16.31-6.86-16.31-17.81,0-11.59,7.52-18.38,16.87-18.38,9.77,0,16.38,7.22,16.38,17.74,0,12.87-8.79,18.45-16.87,18.45Zm.21-4.72c5.91,0,10.33-5.65,10.33-13.52,0-5.87-2.88-13.23-10.19-13.23s-10.4,6.86-10.4,13.44c0,7.58,4.22,13.31,10.19,13.31Z"/><path class="cls-2" d="M221.49,26.32c0-3.64-.07-6.51-.28-9.37h5.48L227,22.6h.14a12.59,12.59,0,0,1,11.25-6.43c4.71,0,12,2.86,12,14.73V51.57h-6.18V31.62c0-5.58-2-10.3-7.88-10.3a9,9,0,0,0-8.29,6.43,9.57,9.57,0,0,0-.42,2.94V51.57h-6.19Z"/><path class="cls-2" d="M264,35.34c.14,8.51,5.41,12,11.59,12A22.86,22.86,0,0,0,285,45.63l1.13,4.44a27.18,27.18,0,0,1-11.39,2.22c-10.4,0-16.73-7.08-16.73-17.45,0-10.52,6.12-18.75,16-18.75,11.11,0,14,10,14,16.31a16.63,16.63,0,0,1-.21,3Zm18.06-4.51c.07-3.94-1.61-10.23-8.5-10.23-6.33,0-9,5.87-9.49,10.23Z"/></g></g></svg>