<svg xmlns="http://www.w3.org/2000/svg" viewBox="0 0 348.86 52.52"><defs><style>.cls-1{fill:#78a22e;}.cls-2{fill:#5d87a1;}.cls-3{fill:#8eabbd;}.cls-4{fill:#9ab962;}</style></defs><g id="Layer_2" data-name="Layer 2"><g id="Layer_1-2" data-name="Layer 1"><path class="cls-1" d="M85.25,24.72l6.22.07,0,26.94H85.27Z"/><path class="cls-1" d="M65.52,51.73V21.9H60.81V17.11h4.71V15.18c0-9.09,5.34-15,14.9-15,3.16,0,6.89,1,8.64,2.29L87.31,7.23a13.06,13.06,0,0,0-7.17-2c-6.54,0-8.51,4.65-8.51,10.16v1.72l19.7.06V21.9H71.7V51.73Z"/><path class="cls-1" d="M105.23,35.49c.14,8.52,5.41,12,11.6,12a23.09,23.09,0,0,0,9.42-1.72l1.12,4.44A27.34,27.34,0,0,1,116,52.44c-10.4,0-16.73-7.08-16.73-17.45s6.12-18.74,16-18.74c11.11,0,14,9.94,14,16.31a16.43,16.43,0,0,1-.21,3ZM123.29,31c.07-3.93-1.61-10.22-8.5-10.22-6.33,0-9,5.86-9.49,10.22Z"/><path class="cls-1" d="M136.93.94h6.18V51.73h-6.18Z"/><path class="cls-1" d="M182.76.94V42.79c0,3.07.07,6.58.28,8.94h-5.55l-.29-6h-.14a12.45,12.45,0,0,1-11.52,6.8c-8.23,0-14.62-7.08-14.62-17.6-.07-11.59,7-18.6,15.25-18.6,5.27,0,8.78,2.5,10.26,5.22h.14V.94ZM176.57,31.2a12,12,0,0,0-.28-2.72,9.15,9.15,0,0,0-8.93-7.22c-6.39,0-10.19,5.72-10.19,13.3,0,7.08,3.45,12.88,10.05,12.88a9.41,9.41,0,0,0,9.07-7.51,11.19,11.19,0,0,0,.28-2.72Z"/><path class="cls-2" d="M192.18,45.36a17.16,17.16,0,0,0,8.22,2.43c4.43,0,6.54-2.21,6.54-5.14s-1.76-4.66-6.26-6.37c-6.18-2.29-9.07-5.66-9.07-9.8,0-5.58,4.5-10.16,11.74-10.16a15.55,15.55,0,0,1,8.3,2.15L210.17,23a13.82,13.82,0,0,0-7-2c-3.65,0-5.62,2.15-5.62,4.72,0,2.93,2,4.22,6.39,5.94,5.84,2.22,8.93,5.22,8.93,10.44,0,6.15-4.71,10.45-12.65,10.45a19,19,0,0,1-9.56-2.44Z"/><path class="cls-2" d="M228.31,8.81v8.3h8.85V21.9h-8.85V40.57c0,4.29,1.19,6.72,4.64,6.72a11.62,11.62,0,0,0,3.58-.42l.28,4.79a16.57,16.57,0,0,1-5.48.86,8.74,8.74,0,0,1-6.68-2.65c-1.69-1.93-2.39-5-2.39-9.09V21.9H217V17.11h5.27V10.74Z"/><path class="cls-2" d="M257.56,52.52c-9.14,0-16.31-6.87-16.31-17.81,0-11.59,7.52-18.39,16.87-18.39,9.77,0,16.38,7.23,16.38,17.74,0,12.88-8.79,18.46-16.87,18.46Zm.21-4.73c5.9,0,10.33-5.65,10.33-13.52,0-5.86-2.88-13.23-10.19-13.23s-10.4,6.87-10.4,13.45c0,7.58,4.21,13.3,10.18,13.3Z"/><path class="cls-2" d="M282.3,26.48c0-3.65-.07-6.51-.28-9.37h5.48l.35,5.65H288a12.57,12.57,0,0,1,11.25-6.44c4.71,0,12,2.86,12,14.74V51.73h-6.19v-20c0-5.58-2-10.3-7.87-10.3a8.93,8.93,0,0,0-8.29,6.44,9.25,9.25,0,0,0-.43,2.93V51.73H282.3Z"/><path class="cls-2" d="M324.83,35.49c.13,8.52,5.41,12,11.59,12a23.09,23.09,0,0,0,9.42-1.72L347,50.23a27.32,27.32,0,0,1-11.38,2.21c-10.4,0-16.73-7.08-16.73-17.45s6.11-18.74,16-18.74c11.1,0,14,9.94,14,16.31a16.43,16.43,0,0,1-.21,3ZM342.89,31c.07-3.93-1.62-10.22-8.51-10.22-6.32,0-9,5.86-9.49,10.22Z"/><rect class="cls-3" x="38" y="36" width="16" height="16" rx="3.49"/><rect class="cls-1" x="19" y="36" width="16" height="16" rx="3.49"/><rect class="cls-4" y="36" width="16" height="16" rx="3.49"/><rect class="cls-4" x="38" y="18" width="16" height="16" rx="3.49"/><rect class="cls-2" x="19" y="18" width="16" height="16" rx="3.49"/><rect class="cls-3" y="18" width="16" height="16" rx="3.49"/><rect class="cls-3" x="38" width="16" height="16" rx="3.49"/><rect class="cls-1" x="19" width="16" height="16" rx="3.49"/><rect class="cls-2" width="16" height="16" rx="3.49"/></g></g></svg>